<?xml version="1.0" encoding="UTF-8" standalone="no"?>
<!-- Uploaded to: SVG Repo, www.svgrepo.com, Generator: SVG Repo Mixer Tools -->

<svg
   fill="#000000"
   version="1.1"
   id="Capa_1"
   width="800px"
   height="800px"
   viewBox="0 0 85.843 85.843"
   xml:space="preserve"
   sodipodi:docname="hand-stopping-gesture-white.svg"
   inkscape:version="1.1.1 (3bf5ae0d25, 2021-09-20)"
   xmlns:inkscape="http://www.inkscape.org/namespaces/inkscape"
   xmlns:sodipodi="http://sodipodi.sourceforge.net/DTD/sodipodi-0.dtd"
   xmlns="http://www.w3.org/2000/svg"
   xmlns:svg="http://www.w3.org/2000/svg"><defs
   id="defs9" /><sodipodi:namedview
   id="namedview7"
   pagecolor="#ffffff"
   bordercolor="#666666"
   borderopacity="1.0"
   inkscape:pageshadow="2"
   inkscape:pageopacity="0.0"
   inkscape:pagecheckerboard="0"
   showgrid="false"
   inkscape:zoom="0.74"
   inkscape:cx="400"
   inkscape:cy="400.67568"
   inkscape:window-width="1440"
   inkscape:window-height="829"
   inkscape:window-x="-8"
   inkscape:window-y="-8"
   inkscape:window-maximized="1"
   inkscape:current-layer="Capa_1" />
<g
   id="g4"
   style="fill:#ffffff"
   transform="matrix(-1,0,0,1,85.8425,0)">
	<path
   d="m 76.494,51.757 c 0.01,-0.715 0.01,-1.423 0,-2.121 V 25.733 c 0,-3.361 -2.734,-6.096 -6.097,-6.096 h -0.5 c -1.18,0 -2.278,0.342 -3.212,0.925 v -6.004 c 0,-3.553 -3.521,-6.554 -7.688,-6.554 -1.188,0 -2.453,0.408 -3.563,1.115 V 7.624 C 55.434,3.421 52.013,0 47.809,0 43.606,0 40.186,3.421 40.186,7.624 v 2.998 c -1.183,-0.801 -2.607,-1.27 -4.141,-1.27 -4.076,0 -7.394,3.315 -7.394,7.392 v 27.291 c 0,1.172 -0.134,2.076 -0.29,2.734 -7.326,-3.85 -12.707,-4.823 -16.01,-2.891 -2.375,1.393 -3.01,3.922 -3.01,5.197 0,5.428 6.334,7.859 7.244,8.181 11.835,5.496 13.08,11.933 12.765,15.291 h -0.375 c -1.632,0 -2.954,1.323 -2.954,2.955 v 7.386 c 0,1.631 1.322,2.954 2.954,2.954 h 42.347 c 1.631,0 2.955,-1.323 2.955,-2.954 v -7.386 c 0,-1.632 -1.324,-2.955 -2.955,-2.955 h -0.373 c 0.262,-3.005 0.826,-3.987 1.75,-5.583 0.672,-1.162 1.508,-2.607 2.438,-5.139 0.882,-2.398 1.24,-5.733 1.336,-9.072 h 0.02 v -0.997 h 0.001 z m -4.411,8.947 c -0.834,2.269 -1.562,3.524 -2.201,4.633 -1.172,2.026 -1.898,3.465 -2.197,7.212 H 32.595 C 32.701,71.033 32.57,69.153 31.818,67.07 29.991,62.007 25.301,57.702 17.879,54.269 l -0.172,-0.066 c -0.051,-0.018 -5.109,-1.782 -5.109,-5.127 0,-0.016 0.039,-1.59 1.4,-2.389 1.393,-0.814 5.116,-1.404 14.408,3.81 l 1.278,0.718 0.847,-1.197 c 0.141,-0.199 1.377,-2.062 1.377,-5.981 V 16.744 c 0,-2.281 1.857,-4.138 4.139,-4.138 2.283,0 4.141,1.856 4.141,4.138 v 18.352 h 3.255 V 7.624 c 0,-2.41 1.959,-4.37 4.368,-4.37 2.41,0 4.371,1.96 4.371,4.37 V 31.98 h 3.254 V 14.558 c 0,-1.745 1.994,-3.3 3.563,-3.3 2.279,0 4.433,1.604 4.433,3.3 v 20.938 l 0.006,2.23 0.948,-0.305 h 2.615 V 25.733 c 0,-1.597 1.3,-2.896 2.896,-2.896 h 0.5 c 1.598,0 2.896,1.3 2.896,2.896 v 24.158 c -0.016,-0.003 -0.032,-10e-4 -0.049,-0.004 0.054,3.901 -0.174,8.134 -1.161,10.817 z"
   id="path2"
   style="fill:#ffffff" />
</g>
</svg>
