<?xml version="1.0" encoding="UTF-8" standalone="no"?>
<svg
   version="1.1"
   viewBox="0 0 298 298"
   enable-background="new 0 0 298 298"
   id="svg8"
   sodipodi:docname="switch-v-white.svg"
   inkscape:version="1.1.1 (3bf5ae0d25, 2021-09-20)"
   xmlns:inkscape="http://www.inkscape.org/namespaces/inkscape"
   xmlns:sodipodi="http://sodipodi.sourceforge.net/DTD/sodipodi-0.dtd"
   xmlns="http://www.w3.org/2000/svg"
   xmlns:svg="http://www.w3.org/2000/svg">
  <defs
     id="defs12" />
  <sodipodi:namedview
     id="namedview10"
     pagecolor="#ffffff"
     bordercolor="#666666"
     borderopacity="1.0"
     inkscape:pageshadow="2"
     inkscape:pageopacity="0.0"
     inkscape:pagecheckerboard="0"
     showgrid="false"
     inkscape:zoom="1.9865772"
     inkscape:cx="148.74831"
     inkscape:cy="149.25169"
     inkscape:window-width="1440"
     inkscape:window-height="829"
     inkscape:window-x="-8"
     inkscape:window-y="-8"
     inkscape:window-maximized="1"
     inkscape:current-layer="svg8" />
  <g
     id="g6"
     transform="rotate(90,149,149)"
     style="fill:#ffffff">
    <path
       d="m 298,178.248 h -59.517 c -3.323,-9.592 -12.442,-16.5 -23.151,-16.5 -13.51,0 -24.5,10.99 -24.5,24.5 0,13.51 10.99,24.5 24.5,24.5 10.709,0 19.828,-6.908 23.151,-16.5 H 298 Z m -74.168,8 c 0,4.687 -3.814,8.5 -8.5,8.5 -4.687,0 -8.5,-3.813 -8.5,-8.5 0,-4.686 3.813,-8.5 8.5,-8.5 4.686,0 8.5,3.813 8.5,8.5 z"
       id="path2"
       style="fill:#ffffff" />
    <path
       d="m 171.014,87.252 -76.967,76.967 c -3.238,-1.582 -6.873,-2.472 -10.713,-2.472 -10.709,0 -19.828,6.908 -23.151,16.5 H 0 v 16 h 60.183 c 3.323,9.592 12.442,16.5 23.151,16.5 13.51,0 24.5,-10.99 24.5,-24.5 0,-3.841 -0.891,-7.476 -2.472,-10.715 l 76.966,-76.966 z m -96.18,98.996 c 0,-4.686 3.813,-8.5 8.5,-8.5 4.687,0 8.5,3.814 8.5,8.5 0,4.687 -3.813,8.5 -8.5,8.5 -4.687,0 -8.5,-3.814 -8.5,-8.5 z"
       id="path4"
       style="fill:#ffffff" />
  </g>
</svg>
