<?xml version="1.0" encoding="UTF-8" standalone="no"?>
<!-- Generator: Adobe Illustrator 19.0.0, SVG Export Plug-In . SVG Version: 6.00 Build 0)  -->

<svg
   version="1.1"
   id="Layer_1"
   x="0px"
   y="0px"
   viewBox="0 0 512.003 512.003"
   style="enable-background:new 0 0 512.003 512.003;"
   xml:space="preserve"
   sodipodi:docname="time-watch-whte.svg"
   inkscape:version="1.1.1 (3bf5ae0d25, 2021-09-20)"
   xmlns:inkscape="http://www.inkscape.org/namespaces/inkscape"
   xmlns:sodipodi="http://sodipodi.sourceforge.net/DTD/sodipodi-0.dtd"
   xmlns="http://www.w3.org/2000/svg"
   xmlns:svg="http://www.w3.org/2000/svg"><defs
   id="defs47" /><sodipodi:namedview
   id="namedview45"
   pagecolor="#ffffff"
   bordercolor="#666666"
   borderopacity="1.0"
   inkscape:pageshadow="2"
   inkscape:pageopacity="0.0"
   inkscape:pagecheckerboard="0"
   showgrid="false"
   inkscape:zoom="1.1562432"
   inkscape:cx="255.56906"
   inkscape:cy="256.43393"
   inkscape:window-width="1440"
   inkscape:window-height="829"
   inkscape:window-x="-8"
   inkscape:window-y="-8"
   inkscape:window-maximized="1"
   inkscape:current-layer="Layer_1" />
<g
   id="g6"
   style="fill:#ffffff">
	<g
   id="g4"
   style="fill:#ffffff">
		<path
   d="M500.387,210.848l-42.157-13.472c-4.316-14.926-10.272-29.295-17.783-42.912l20.287-39.343    c3.328-6.456,2.103-14.322-3.034-19.457l-41.364-41.365c-5.134-5.136-13.003-6.362-19.456-3.034l-39.345,20.287    c-13.616-7.511-27.986-13.466-42.911-17.782l-13.472-42.157c-2.209-6.918-8.638-11.612-15.902-11.612h-58.5    c-7.263,0-13.693,4.695-15.903,11.614l-13.472,42.156c-14.925,4.316-29.294,10.271-42.911,17.782l-39.345-20.287    c-6.457-3.33-14.323-2.101-19.456,3.034L54.299,95.665c-5.136,5.136-6.362,13.001-3.034,19.457l20.287,39.343    c-7.511,13.616-13.467,27.986-17.783,42.912l-42.157,13.472C4.696,213.059,0,219.489,0,226.751v58.499    c0,7.263,4.696,13.693,11.614,15.903l42.156,13.472c4.316,14.926,10.272,29.295,17.783,42.912l-20.287,39.343    c-3.328,6.456-2.103,14.322,3.034,19.457l41.364,41.365c5.134,5.136,13.004,6.362,19.456,3.034l39.345-20.287    c13.616,7.511,27.986,13.466,42.911,17.782l13.472,42.156c2.211,6.919,8.641,11.614,15.903,11.614h58.501    c7.263,0,13.693-4.695,15.903-11.614l13.472-42.156c14.925-4.316,29.294-10.271,42.911-17.782l39.345,20.287    c6.457,3.329,14.322,2.1,19.456-3.034l41.364-41.365c5.136-5.136,6.362-13.001,3.034-19.457l-20.287-39.343    c7.511-13.616,13.467-27.986,17.783-42.912l42.156-13.472c6.918-2.211,11.613-8.641,11.613-15.903v-58.499    C512,219.489,507.304,213.059,500.387,210.848z M256,401.912c-80.455,0-145.911-65.456-145.911-145.911S175.545,110.09,256,110.09    s145.911,65.455,145.911,145.911S336.455,401.912,256,401.912z"
   id="path2"
   style="fill:#ffffff" />
	</g>
</g>
<g
   id="g12"
   style="fill:#ffffff">
	<g
   id="g10"
   style="fill:#ffffff">
		<path
   d="M295.164,271.554l-22.468-22.468v-60.542c0-9.22-7.475-16.696-16.696-16.696c-9.22,0-16.696,7.475-16.696,16.696v67.457    c0,4.429,1.759,8.674,4.891,11.806l27.357,27.358c6.519,6.519,17.091,6.52,23.611,0S301.684,278.074,295.164,271.554z"
   id="path8"
   style="fill:#ffffff" />
	</g>
</g>
<g
   id="g14">
</g>
<g
   id="g16">
</g>
<g
   id="g18">
</g>
<g
   id="g20">
</g>
<g
   id="g22">
</g>
<g
   id="g24">
</g>
<g
   id="g26">
</g>
<g
   id="g28">
</g>
<g
   id="g30">
</g>
<g
   id="g32">
</g>
<g
   id="g34">
</g>
<g
   id="g36">
</g>
<g
   id="g38">
</g>
<g
   id="g40">
</g>
<g
   id="g42">
</g>
</svg>
